<?xml version="1.0" standalone="yes"?>
<svg width="200" height="38">
<path style="fill:#ffffff; stroke:none;" d="M0 0L0 38L200 38L200 0L192 0C198.073 9.65472 192 18.9526 192 30L16 30L16 7L12 7C12 10.1977 13.7486 32.7389 6.31327 28.1682C1.01538 24.9114 4 5.61723 4 0L0 0z"/>
<path style="fill:#192144; stroke:none;" d="M4 0C4 5.99223 0.974904 24.1376 5.60262 28.3526C7.99244 30.5293 10.948 28.4867 11.6821 25.8912C13.2671 20.2872 12 12.8105 12 7L16 7L16 30L192 30C192 22.5959 199.144 7.78026 193.682 2.3179C190.319 -1.04525 184.319 0 180 0L145 0L4 0z"/>
</svg>
