<?xml version="1.0" standalone="yes"?>
<svg width="400" height="104">
<path style="fill:#000000; stroke:none;" d="M0 0L0 29L1 29C7.91396 13.2827 23.8001 13.1214 38 15C37.5351 7.67458 35.3753 3.57079 44 1C32.5366 -3.81025 12.4804 0 0 0z"/>
<path style="fill:#8a4a38; stroke:none;" d="M37 3L37 4C40.5214 5.07539 41.3203 6.33941 41 10C48.318 6.58492 53.682 6.58492 61 10C60.6797 6.33942 61.4786 5.07539 65 4C57.0806 -2.39066 45.7456 -0.36792 37 3z"/>
<path style="fill:#000000; stroke:none;" d="M58 0L58 1C66.1173 3.41956 65.1494 7.72452 65 15L79 13L78 6L102 10L102 0L58 0z"/>
<path style="fill:#ffffff; stroke:none;" d="M102 0L102 5L176 5C176 16.8057 173.985 24.3982 188 25L185 29L192 29L192 13L208 13L208 9L320 9L320 29L347 29C344.882 18.706 357.118 18.706 355 29L400 29L400 0L102 0z"/>
<path style="fill:#f6ef3e; stroke:none;" d="M36 4L38 16C43.3609 12.5378 42.9328 4.54023 36 4M62 16C65.8825 13.4926 65.8134 8.34666 66 4C58.0784 4.61728 61.6369 10.288 62 16z"/>
<path style="fill:#ff8d30; stroke:none;" d="M102 5L102 10L78 6L79 13L68 13L68 14C79.758 14 92.9006 15.866 99.517 27.0008C103.333 33.4227 102 41.819 102 49L102 94L80 94L80 104L176 104L176 80L137 80L142.397 67L142 30L177 30L177 36L188 25C174.411 23.926 176 16.5958 176 5L102 5z"/>
<path style="fill:#000000; stroke:none;" d="M41 15L62 15C61.1377 4.09223 41.8525 3.81716 41 15z"/>
<path style="fill:#72a73e; stroke:none;" d="M208 9L208 17C226.396 9.91584 237.113 17.2711 250 30L215 41L215 42C219.73 42 227.62 40.5137 231.752 43.179C238.817 47.7359 227.387 50.96 224 51C224 54.5472 221.761 76.9795 215.028 64.9367C211.885 59.3152 214 48.3207 214 42L207 44C210.641 54.0228 211.296 64.9362 215.343 74.8526C216.878 78.6112 223.133 78.4034 223.133 83C223.132 90.9315 214.439 85.8019 214 80L208 80L208 101L320 101L320 93L272 93L272 84L291 78C284.22 73.8357 275.238 69.7565 270.703 62.9961C265.606 55.3987 269.603 43.782 279 41.7577C287.54 39.9179 296.737 46.7306 305 47L305 42L321 42L317 29C322.429 27.8366 320 13.7867 320 9L208 9z"/>
<path style="fill:#f6a725; stroke:none;" d="M20 13L20 44L34 44L34 13L20 13z"/>
<path style="fill:#eb9898; stroke:none;" d="M192 13C192 17.4054 189.849 27.8963 195 29L192 41L207 43.8711L249 31C243.835 14.8237 222.052 9.63428 208 17L208 13L192 13z"/>
<path style="fill:#f6a725; stroke:none;" d="M68 14L68 44L82 44L82 14L68 14z"/>
<path style="fill:#ffbd30; stroke:none;" d="M364.318 15.0324C359.207 18.3323 364.49 26.3201 369.682 22.9676C374.793 19.6677 369.51 11.68 364.318 15.0324z"/>
<path style="fill:#8a4a38; stroke:none;" d="M0 86L20 86L20 77C2.98449 80.8614 2.84255 55.1064 20 59L20 44C15.3797 33.9399 20 26.4946 20 15C-9.90976 19.0474 0 63.9629 0 86M34 15L34 86L68 86L64.4761 61.0039L67.6682 52.8449L68 41C63.3166 44.2991 59.8786 49.6373 55 52.534C50.629 55.1293 42.0556 47.5949 42.0556 43C42.0556 39.5416 46.805 36.197 49 34C55.2763 27.7181 59.2666 20.4149 68 26L68 15L34 15M82 16C82 25.989 83.0895 36.1753 83.0895 46C83.0895 50.0833 81.2636 53.7667 82.3179 58C83.9825 64.6837 93.2269 69.3981 92.4691 76.9954C91.9068 82.6335 86.249 82.9614 82 82L82 86L102 86C102 65.1662 111.717 18.4305 82 16z"/>
<path style="fill:#ffbd30; stroke:none;" d="M348.318 21.0324C343.207 24.3323 348.49 32.32 353.682 28.9676C358.793 25.6677 353.51 17.68 348.318 21.0324z"/>
<path style="fill:#c2dea3; stroke:none;" d="M60.9992 22.3457C55.8936 23.6273 42.8519 36.838 41.7515 42C40.8151 46.3931 48.5838 54.5998 53 54.0787C61.4691 53.0794 68.0347 40.3522 67.9992 33C67.9807 29.1646 66.8977 20.8651 60.9992 22.3457z"/>
<path style="fill:#000000; stroke:none;" d="M166 47C157.908 52.7005 156.113 60.0557 150.397 66.6782C145.188 72.7141 137.367 68.6774 137 80L192 80C197.8 80 208.447 82.0625 213.667 79.3966C217.25 77.5665 214.034 73.9876 211.891 72.6698C206.326 69.2471 202.2 69.5114 196 70C194.396 76.6835 185.563 81.7786 181.18 73.8912C179.298 70.505 179.597 59.1005 179.769 55C180.125 46.4615 186.866 46.0244 191.012 40.5015C193.187 37.6051 194.052 32.4727 195 29C192.103 29 188.83 28.6078 186 29.3179C169.038 33.5746 182.09 55.5436 175.821 65.7716C173.438 69.6604 168.444 69.0008 166.742 64.9414C164.64 59.9274 166 52.3612 166 47M249 29L250 30L249 29M317 29C320.273 39.0636 320.967 42 332 42C332 46.6811 330.859 52.0134 335 55C335.002 40.3172 344.99 40.3237 345 55L346 55C347.597 52.6518 349.146 50.2497 350.9 48.0139C362.534 33.1901 368.382 55.0944 364.397 64.9414C359.808 76.2772 355 60.4819 355 56L354 56C347.909 66.3331 358.745 69.4571 359 80L400 80L400 29L317 29z"/>
<path style="fill:#c49a6c; stroke:none;" d="M19 30C14.4652 34.9679 14.437 37.9351 20 42L19 30z"/>
<path style="fill:#ffffff; stroke:none;" d="M142 30L142 58C142.005 61.1242 141.398 65.9512 144.434 67.9676C147.871 70.2507 151.289 67.4401 151.852 63.9807C153.194 55.7258 152 46.3652 152 38C155.631 38 161.528 36.9096 164.681 39.0278C171.879 43.8617 160.849 61.2699 168.318 67.392C172.249 70.6146 175.59 66.9512 175.941 62.9954C176.902 52.1707 176 40.87 176 30L142 30z"/>
<path style="fill:#f9b47d; stroke:none;" d="M176 30L176 36L177 36L176 30z"/>
<path style="fill:#ffffff; stroke:none;" d="M376.001 30.7423C370.472 32.8681 363.867 45.7037 373.996 45.7037C377.569 45.7037 380.574 37.9375 383.553 39.9174C384.966 40.8561 370.6 59.0328 383.911 55.2145C403.816 49.5048 395.134 23.3853 376.001 30.7423z"/>
<path style="fill:#808080; stroke:none;" d="M388 30L389 31L388 30z"/>
<path style="fill:#dddddd; stroke:none;" d="M176 36L176 66L177 66L176 36z"/>
<path style="fill:#edcbaf; stroke:none;" d="M152 38L152 39L166 39L152 38z"/>
<path style="fill:#ea812c; stroke:none;" d="M152 39L152 60C159.619 54.6327 165.966 48.6324 166 39L152 39z"/>
<path style="fill:#f0ccaf; stroke:none;" d="M166 39L166 46L167 46L166 39z"/>
<path style="fill:#ffffff; stroke:none;" d="M191 41.8179C171.596 44.1535 180.059 72.7664 199 69.7863C209.179 68.1847 214.793 55.494 208.347 47.108C204.573 42.1984 196.835 41.1156 191 41.8179z"/>
<path style="fill:#f5d1d1; stroke:none;" d="M192 41L192 42L198 42L192 41z"/>
<path style="fill:#a9c38f; stroke:none;" d="M214 41L214 66L215 66L214 41z"/>
<path style="fill:#a9c98a; stroke:none;" d="M278 41L278 42L283 42L278 41z"/>
<path style="fill:#a89971; stroke:none;" d="M40.3333 42.6667L40.6667 43.3333L40.3333 42.6667z"/>
<path style="fill:#c1d8ab; stroke:none;" d="M215 42L215 43L232 43L215 42z"/>
<path style="fill:#c0d7a9; stroke:none;" d="M240 42L240 43L243 43L240 42z"/>
<path style="fill:#c1d8ab; stroke:none;" d="M259 42L259 43L262 43L259 42z"/>
<path style="fill:#ffffff; stroke:none;" d="M289 66C300.055 73.8272 300.557 51.7244 297.397 45.3179C295.617 41.7107 290.765 44.0577 287.715 43.4321C284.072 42.6851 280.793 41.3974 277.001 42.4336C257.703 47.7073 273.771 81.1985 289 66z"/>
<path style="fill:#c1d8aa; stroke:none;" d="M292 42L292 43L295 43L292 42z"/>
<path style="fill:#c1d8ab; stroke:none;" d="M305 42L305 47L306 47L306 43L321 43L305 42z"/>
<path style="fill:#ffffff; stroke:none;" d="M306 43L307 60C303.38 60.5774 298.523 64.578 303.434 67.8063C314.142 74.8448 315 55.2307 315 50L322 50C322 54.6385 320.715 61.5481 322.603 65.8511C324.147 69.3675 328.684 69.1337 330.258 65.7716C333.263 59.353 330.682 49.0975 332 42L306 43M354 56L355 56C355 59.2498 354.276 63.8363 356.179 66.6821C359.007 70.9115 364.003 68.0185 364.772 63.9807C366.706 53.8274 362.238 31.8714 350.299 48.0139C348.641 50.2554 347.237 52.514 346 55C345.207 52.3185 345.313 49.7546 344.772 47.044C343.887 42.6042 337.799 40.1274 335.603 45.1481C331.157 55.3142 337.11 78.005 349.532 62.9969C351.343 60.8081 352.742 58.5258 354 56z"/>
<path style="fill:#808080; stroke:none;" d="M342 42L343 43L342 42M361 42L362 43L361 42z"/>
<path style="fill:#7c7c7c; stroke:none;" d="M368 42L369 43L368 42z"/>
<path style="fill:#5b5b5b; stroke:none;" d="M385 42L386 43L385 42z"/>
<path style="fill:#ffffff; stroke:none;" d="M215 43C215 48.9729 212.591 61.6356 216.028 66.6775C217.815 69.2999 221.202 68.5683 222.397 65.8511C224.287 61.5513 223 54.6362 223 50C225.194 49.9998 240.616 47.7764 232.562 43.6034C228.231 41.3597 219.816 43 215 43M246 59L256 59C256.037 69.4571 264.837 71.3523 264.996 60C265.052 55.972 266.306 48.8166 263.972 45.3179C259.094 38.0031 256.034 48.22 256 52L246 52C245.966 42.4205 238.074 40.4409 238.001 51C237.971 55.3282 236.832 61.8215 238.603 65.8511C242.319 74.3012 245.988 62.4509 246 59z"/>
<path style="fill:#f6ef3e; stroke:none;" d="M18 44L18 48L36 48L36 44L18 44M66 44L66 48L84 48L84 44L66 44z"/>
<path style="fill:#808080; stroke:none;" d="M184 44L185 45L184 44z"/>
<path style="fill:#696969; stroke:none;" d="M331 44L331 54L332 54L331 44z"/>
<path style="fill:#595959; stroke:none;" d="M369 44L370 45L369 44z"/>
<path style="fill:#e3ebda; stroke:none;" d="M237 45L237 66L238 66L237 45z"/>
<path style="fill:#808080; stroke:none;" d="M182 46L183 47L182 46z"/>
<path style="fill:#afcc92; stroke:none;" d="M246 46L246 52L256 52L256 51L247 51L246 46z"/>
<path style="fill:#c0d9ee; stroke:none;" d="M298 46L298 66L299 66L298 46z"/>
<path style="fill:#82b6e0; stroke:none;" d="M299 47C299 53.0427 301.109 73.1588 290 66L289 66L279 70L279 71C286.445 75.7816 290.997 72.7646 298.91 72.439C308.792 72.0325 313.006 76.5736 318 64L319 64C320.427 79.6897 350.018 76.3951 350 63C348.299 64.1781 346.709 65.6013 344.975 66.7215C335.001 73.1645 336.938 55.9708 331 54C331 57.0038 328.975 75.5399 323.028 65.8364C320.603 61.88 322 54.4886 322 50L315 50C315 54.8934 315.778 60.7868 312.486 64.8665C310.267 67.6165 304.338 70.3801 302.326 65.7677C300.934 62.576 305 51.5628 305 47L299 47z"/>
<path style="fill:#c0d9ee; stroke:none;" d="M305 47L304 60L307 60L307 59L305 47z"/>
<path style="fill:#a1a1a1; stroke:none;" d="M378 47L379 48L378 47z"/>
<path style="fill:#f6a725; stroke:none;" d="M20 48C22.8649 56.3277 31.1004 56.3231 34 48L20 48M68 48C70.8649 56.3277 79.1004 56.3231 82 48L68 48z"/>
<path style="fill:#898989; stroke:none;" d="M349 49L350 50L349 49z"/>
<path style="fill:#f57b20; stroke:none;" d="M20 50L20 88L34 88L34 50L33 50C28.4753 55.703 24.9596 54.3697 20 50M68 50L68 88L82 88L82 50L81 50C76.4753 55.703 72.9596 54.3697 68 50z"/>
<path style="fill:#d98d8d; stroke:none;" d="M193 50L196 61C204.517 58.4145 200.401 50.241 193 50z"/>
<path style="fill:#d9e5ce; stroke:none;" d="M223 50L223 66L224 66L223 50z"/>
<path style="fill:#86a766; stroke:none;" d="M224 50L224 51L232 51L224 50z"/>
<path style="fill:#87bee9; stroke:none;" d="M280.318 51.0316C275.127 54.403 279.967 64.1436 285.852 60.9529C292.442 57.3795 286.843 46.7941 280.318 51.0316z"/>
<path style="fill:#686868; stroke:none;" d="M391 50L392 51L391 50z"/>
<path style="fill:#000000; stroke:none;" d="M192 51C189.464 55.8596 190.571 59.4249 196 61L192 51z"/>
<path style="fill:#939393; stroke:none;" d="M389 51L390 52L389 51z"/>
<path style="fill:#a7a7a7; stroke:none;" d="M179 54L179 57L180 57L179 54z"/>
<path style="fill:#949494; stroke:none;" d="M378 54L379 55L378 54z"/>
<path style="fill:#93c6eb; stroke:none;" d="M67 70L68 70L68 55C61.813 58.4121 64.9524 64.6829 67 70z"/>
<path style="fill:#757575; stroke:none;" d="M384 55L385 56L384 55z"/>
<path style="fill:#5b5b5b; stroke:none;" d="M353 57L354 58L353 57z"/>
<path style="fill:#ef9a9a; stroke:none;" d="M12.0401 58.8588C1.55151 63.2651 7.5027 82.168 17.6821 77.392C22.8845 74.951 22.4405 54.4895 12.0401 58.8588z"/>
<path style="fill:#ffffff; stroke:none;" d="M379.148 59.0285C372.372 62.9949 379.188 72.7999 385.772 68.8202C392.512 64.7458 385.675 55.208 379.148 59.0285z"/>
<path style="fill:#91af73; stroke:none;" d="M246 59L246 66L247 66L247 60L255 60L255 65L256 65L256 59L246 59z"/>
<path style="fill:#93c6eb; stroke:none;" d="M82 60C82 65.1232 79.749 77.2703 83.0278 81.3966C86.3045 85.5203 92.5036 81.1625 92.7469 76.9954C93.1324 70.394 86.8969 63.5245 82 60z"/>
<path style="fill:#d98c8c; stroke:none;" d="M210 60L203 68L203 69L215 74L210 60z"/>
<path style="fill:#707070; stroke:none;" d="M350 61L351 62L350 61z"/>
<path style="fill:#77a7ce; stroke:none;" d="M182 64L180 68L196 74L196 70L182 64z"/>
<path style="fill:#8ec7f5; stroke:none;" d="M318 64C315.569 68.3645 312.136 75.2235 306.039 74.4375C303.442 74.1026 301.619 71.6661 298.91 71.8472C294.532 72.1401 290.641 73.9964 286 74L293 79L293 80L272 84L272 93L352 93C352.357 82.0876 367.297 73.0895 350 65C346.462 71.7816 331.675 77.3222 324.443 73.4622C320.794 71.5146 319.825 67.3247 318 64z"/>
<path style="fill:#717171; stroke:none;" d="M355 66L356 67L355 66z"/>
<path style="fill:#949494; stroke:none;" d="M364 66L365 67L364 66z"/>
<path style="fill:#969696; stroke:none;" d="M376 66L377 67L376 66z"/>
<path style="fill:#a4a4a4; stroke:none;" d="M167 67L168 68L167 67z"/>
<path style="fill:#5b5b5b; stroke:none;" d="M175 67L176 68L175 67z"/>
<path style="fill:#8dc6f4; stroke:none;" d="M181 67C178.103 77.1106 191.258 82.7812 195 73L181 67z"/>
<path style="fill:#6b6b6b; stroke:none;" d="M168 68L169 69L168 68z"/>
<path style="fill:#888888; stroke:none;" d="M385 69L386 70L385 69z"/>
<path style="fill:#ffbd30; stroke:none;" d="M216.317 79.0432C211.238 82.2511 216.388 90.278 221.566 86.8164C226.499 83.5179 221.297 75.8984 216.317 79.0432z"/>
<path style="fill:#000000; stroke:none;" d="M288 79L288 80L293 80L288 79z"/>
<path style="fill:#ffffff; stroke:none;" d="M176 80L176 104L400 104L400 80C386.832 80 352.234 73.3515 352 93L320 93L320 101L208 101L208 80L176 80z"/>
<path style="fill:#000000; stroke:none;" d="M0 86L0 94L9 94L8 86L0 86z"/>
<path style="fill:#1d2959; stroke:none;" d="M8 86C8.12501 96.548 19.875 96.548 20 86L8 86z"/>
<path style="fill:#000000; stroke:none;" d="M20 88L19 94L83 94L82 88L42 86L20 88z"/>
<path style="fill:#1d2959; stroke:none;" d="M82 86C82.125 96.548 93.875 96.548 94 86L82 86z"/>
<path style="fill:#000000; stroke:none;" d="M94 86L93 94L102 94L102 86L94 86z"/>
<path style="fill:#ffffff; stroke:none;" d="M0 94L0 104L80 104L80 94L0 94z"/>
</svg>
