<?xml version="1.0" standalone="yes"?>
<svg width="400" height="104">
<path style="fill:#000000; stroke:none;" d="M0 0L0 29L1 29C7.91396 13.2827 23.8001 13.1214 38 15C37.5351 7.67458 35.3753 3.57079 44 1C32.5366 -3.81025 12.4804 0 0 0z"/>
<path style="fill:#8a4a38; stroke:none;" d="M37 3L37 4C40.5214 5.07539 41.3203 6.33941 41 10C48.318 6.58492 53.682 6.58492 61 10C60.6797 6.33942 61.4786 5.07539 65 4C57.0806 -2.39066 45.7456 -0.36792 37 3z"/>
<path style="fill:#000000; stroke:none;" d="M58 0L58 1C66.1173 3.41956 65.1494 7.72452 65 15L79 13L78 6L102 10L102 0L58 0z"/>
<path style="fill:#ffffff; stroke:none;" d="M102 0L102 5L176 5C176 16.8057 173.985 24.3982 188 25L184 30L192 30L192 13L208 13L208 9L320 9L320 30L348 30C343.3 18.5923 358.7 18.5924 354 30C364.273 30 400.291 24.6161 395.678 43.9992C394.198 50.2198 386.696 52.3542 384 58C388.421 61.5161 390.085 67.8435 382.985 69.6821C375.208 71.6956 365.027 70 357 70C360.932 80.7927 352.116 83.2283 352 93L320 93L320 101L208 101L208 75C198.732 75 182.586 82.6985 180 70L176 70L176 104L400 104L400 0L102 0z"/>
<path style="fill:#f6ef3e; stroke:none;" d="M36 4L38 16C43.3609 12.5378 42.9328 4.54023 36 4M62 16C65.8825 13.4926 65.8134 8.34666 66 4C58.0784 4.61728 61.6369 10.288 62 16z"/>
<path style="fill:#ff8d30; stroke:none;" d="M102 5L102 10L78 6L79 13L68 13L68 14C79.758 14 92.9006 15.866 99.517 27.0008C103.333 33.4227 102 41.819 102 49L102 94L80 94L80 104L176 104L176 70C168.913 70 150.021 73.3331 144.653 68.3966C137.907 62.1931 142 38.6163 142 30L177 30L177 36L188 25C174.411 23.926 176 16.5958 176 5L102 5z"/>
<path style="fill:#000000; stroke:none;" d="M41 15L62 15C61.1377 4.09223 41.8525 3.81716 41 15z"/>
<path style="fill:#72a73e; stroke:none;" d="M208 9L208 17C223.728 10.9431 241.252 14.7162 249 31C235.666 32.1642 219.232 38.5781 207 44L215 74L208 71L208 101L320 101L320 93L272 93L272 84L291 78C284.152 73.8082 275.294 69.8405 270.703 62.9961C265.606 55.3987 269.603 43.782 279 41.7577C287.54 39.9179 296.737 46.7306 305 47L305 42L321 42L320 9L208 9z"/>
<path style="fill:#f6a725; stroke:none;" d="M20 13L20 44L34 44L34 13L20 13z"/>
<path style="fill:#eb9898; stroke:none;" d="M192 13C192 17.5026 189.77 28.8793 195 30L192 41L207 43.8711L249 31C243.835 14.8237 222.052 9.63428 208 17L208 13L192 13z"/>
<path style="fill:#f6a725; stroke:none;" d="M68 14L68 44L82 44L82 14L68 14z"/>
<path style="fill:#ffbd30; stroke:none;" d="M364.318 15.0324C359.207 18.3323 364.49 26.3201 369.682 22.9676C374.793 19.6677 369.51 11.68 364.318 15.0324z"/>
<path style="fill:#8a4a38; stroke:none;" d="M0 86L20 86L20 77C2.98449 80.8614 2.84255 55.1064 20 59L20 44C15.3797 33.9399 20 26.4946 20 15C-9.90976 19.0474 0 63.9629 0 86M34 15L34 86L68 86L64.4761 61.0039L67.6682 52.8449L68 41C63.3166 44.2991 59.8786 49.6373 55 52.534C50.629 55.1293 42.0556 47.5949 42.0556 43C42.0556 39.5416 46.805 36.197 49 34C55.2763 27.7181 59.2666 20.4149 68 26L68 15L34 15M82 16C82 25.989 83.0895 36.1753 83.0895 46C83.0895 50.0833 81.2636 53.7667 82.3179 58C83.9825 64.6837 93.2269 69.3981 92.4691 76.9954C91.9068 82.6335 86.249 82.9614 82 82L82 86L102 86C102 65.1662 111.717 18.4305 82 16z"/>
<path style="fill:#ffbd30; stroke:none;" d="M348.318 21.0324C343.207 24.3323 348.49 32.32 353.682 28.9676C358.793 25.6677 353.51 17.68 348.318 21.0324z"/>
<path style="fill:#c2dea3; stroke:none;" d="M60.9992 22.3457C55.8936 23.6273 42.8519 36.838 41.7515 42C40.8151 46.3931 48.5838 54.5998 53 54.0787C61.4691 53.0794 68.0347 40.3522 67.9992 33C67.9807 29.1646 66.8977 20.8651 60.9992 22.3457z"/>
<path style="fill:#c49a6c; stroke:none;" d="M19 30C14.4652 34.9679 14.437 37.9351 20 42L19 30z"/>
<path style="fill:#192144; stroke:none;" d="M142 30L142 58C142.006 61.4333 141.464 66.6498 144.653 68.9722C151.227 73.761 171.892 70 180 70L181 64C189.408 69.4855 195.119 70 205 70C206.036 66.2459 209.335 63.8201 210.427 60C214.217 46.7528 202.798 42.0071 192 42L195 30C186.626 30 182.89 31.2277 176 36L176 30L142 30z"/>
<path style="fill:#a86438; stroke:none;" d="M176 30L176 36L177 36L176 30z"/>
<path style="fill:#192144; stroke:none;" d="M318 30L321 43L306 43L307 60C303.38 60.5774 298.523 64.578 303.434 67.8063C314.315 74.9581 314 54.983 314 50L322 50C322 54.5065 320.408 62.8127 323.028 66.6782C329.478 76.1957 331 56.766 331 54C337.375 57.2153 335.404 74.3353 345.862 66.7261C347.231 65.7301 348.028 64.3347 349 63L350 63C356.817 70.9397 374.842 73.5699 384.891 69.3966C390.965 66.8745 388.421 60.3204 384 58C387.278 53.4559 394.271 50.5866 395.682 44.9961C397.313 38.5353 393.79 31.4679 387 30.2284C365.482 26.3008 339.901 30 318 30z"/>
<path style="fill:#6f493d; stroke:none;" d="M152 38L152 39L166 39L166 46C170.006 36.3488 157.992 38 152 38z"/>
<path style="fill:#ff8d30; stroke:none;" d="M152 39L152 60C159.88 54.4489 165.992 48.8504 166 39L152 39z"/>
<path style="fill:#ffffff; stroke:none;" d="M384 39L384 44L385 44L384 39z"/>
<path style="fill:#745569; stroke:none;" d="M192 41L192 42L198 42L192 41z"/>
<path style="fill:#4f7240; stroke:none;" d="M278 41L278 42L283 42L278 41z"/>
<path style="fill:#a89971; stroke:none;" d="M40.3333 42.6667L40.6667 43.3333L40.3333 42.6667z"/>
<path style="fill:#405b41; stroke:none;" d="M214 42L214 66L215 66L215 43L232 43L214 42z"/>
<path style="fill:#192144; stroke:none;" d="M246 59L256 59C256.037 69.4571 264.837 71.3523 264.996 60C265.055 55.7726 266.228 48.9121 263.972 45.152C259.247 37.2772 256.035 48.1089 256 52L246 52C245.96 40.7915 237.078 40.7968 237.001 52C236.973 56.022 235.886 62.2603 238.028 65.8511C242.872 73.9727 245.986 63.0183 246 59M289 66C300.14 73.8878 300.35 51.7274 297.397 45.2292C295.408 40.8542 291.117 43.9278 287.715 43.3927C284.022 42.8121 280.838 41.385 277.001 42.4336C257.55 47.7493 273.788 80.2534 289 66z"/>
<path style="fill:#405b41; stroke:none;" d="M305 42L305 47L306 47L306 43L321 43L305 42z"/>
<path style="fill:#192144; stroke:none;" d="M215 43C215 48.9638 212.588 61.6479 216.028 66.6775C218.234 69.9035 222.191 67.9207 223.397 64.9414C225.105 60.7208 224 54.4948 224 50C226.305 49.9982 240.215 47.5685 232.562 43.6034C228.231 41.3597 219.816 43 215 43z"/>
<path style="fill:#f6ef3e; stroke:none;" d="M18 44L18 48L36 48L36 44L18 44M66 44L66 48L84 48L84 44L66 44z"/>
<path style="fill:#4b6c41; stroke:none;" d="M246 46L246 52L256 52L256 46L255 46L255 51L247 51L246 46z"/>
<path style="fill:#53749c; stroke:none;" d="M298 46L298 66L299 66L298 46z"/>
<path style="fill:#8ec7f5; stroke:none;" d="M299 47C299 53.0427 301.109 73.1588 290 66L289 66L279 70L291 78L272 84L272 93L352 93C352.198 86.9567 356.235 86.0053 358.258 80.9568C361.244 73.5028 355.195 67.3229 350 63L349 63C347.749 64.2092 346.439 65.7514 344.955 66.7114C334.498 73.478 337.233 56.0688 331 54C331 57.9773 328.393 76.1193 322.179 64.9375C319.904 60.8436 321 54.5272 321 50L315 50C315 54.8934 315.778 60.7868 312.486 64.8665C310.267 67.6165 304.338 70.3801 302.326 65.7677C300.934 62.576 305 51.5628 305 47L299 47z"/>
<path style="fill:#53749c; stroke:none;" d="M305 47L304 60L307 60L307 59L305 47z"/>
<path style="fill:#f6a725; stroke:none;" d="M20 48C22.8649 56.3277 31.1004 56.3231 34 48L20 48M68 48C70.8649 56.3277 79.1004 56.3231 82 48L68 48z"/>
<path style="fill:#674d63; stroke:none;" d="M194 49L194 50L197 50L194 49z"/>
<path style="fill:#f57b20; stroke:none;" d="M20 50L20 88L34 88L34 50L33 50C28.4753 55.703 24.9596 54.3697 20 50M68 50L68 88L82 88L82 50L81 50C76.4753 55.703 72.9596 54.3697 68 50z"/>
<path style="fill:#eb9898; stroke:none;" d="M192 51L196 61C204.511 58.4162 200.453 48.5995 192 51z"/>
<path style="fill:#8ec7f5; stroke:none;" d="M280.318 51.0316C274.553 54.782 280.78 63.8665 286.682 59.9715C292.317 56.253 286.033 47.314 280.318 51.0316z"/>
<path style="fill:#2f4065; stroke:none;" d="M314 50L314 62L315 62L314 50z"/>
<path style="fill:#719dc9; stroke:none;" d="M321 50L321 65L322 65L321 50z"/>
<path style="fill:#765669; stroke:none;" d="M201 54L201 57L202 57L201 54z"/>
<path style="fill:#455f86; stroke:none;" d="M277 54L277 57L278 57L277 54z"/>
<path style="fill:#4a668e; stroke:none;" d="M289 54L289 57L290 57L289 54z"/>
<path style="fill:#93c6eb; stroke:none;" d="M67 70L68 70L68 55C61.813 58.4121 64.9524 64.6829 67 70z"/>
<path style="fill:#364a70; stroke:none;" d="M335 56L335 65L336 65L335 56z"/>
<path style="fill:#ef9a9a; stroke:none;" d="M12.0401 58.8588C1.55151 63.2651 7.5027 82.168 17.6821 77.392C22.8845 74.951 22.4405 54.4895 12.0401 58.8588z"/>
<path style="fill:#567d40; stroke:none;" d="M246 59L246 66L247 66L247 60L255 60L255 65L256 65L256 59L246 59z"/>
<path style="fill:#93c6eb; stroke:none;" d="M82 60C82 65.1232 79.749 77.2703 83.0278 81.3966C86.3045 85.5203 92.5036 81.1625 92.7469 76.9954C93.1324 70.394 86.8969 63.5245 82 60z"/>
<path style="fill:#eb9898; stroke:none;" d="M210 61L205 70L196 70L195 75L208 75L208 71L215 74L210 61z"/>
<path style="fill:#5a7da6; stroke:none;" d="M281 61L281 62L286 62L281 61z"/>
<path style="fill:#8ec7f5; stroke:none;" d="M181 64C180.14 67.612 179.059 72.4117 181.742 75.5664C187.043 81.7986 195.267 76.518 196 70L181 64z"/>
<path style="fill:#364a70; stroke:none;" d="M277 69L277 70L284 70L277 69z"/>
<path style="fill:#ffbd30; stroke:none;" d="M216.317 79.0432C211.238 82.2511 216.388 90.278 221.566 86.8164C226.499 83.5179 221.297 75.8984 216.317 79.0432z"/>
<path style="fill:#000000; stroke:none;" d="M0 86L0 94L9 94L8 86L0 86z"/>
<path style="fill:#1d2959; stroke:none;" d="M8 86C8.12501 96.548 19.875 96.548 20 86L8 86z"/>
<path style="fill:#000000; stroke:none;" d="M20 88L19 94L83 94L82 88L42 86L20 88z"/>
<path style="fill:#1d2959; stroke:none;" d="M82 86C82.125 96.548 93.875 96.548 94 86L82 86z"/>
<path style="fill:#000000; stroke:none;" d="M94 86L93 94L102 94L102 86L94 86z"/>
<path style="fill:#ffffff; stroke:none;" d="M0 94L0 104L80 104L80 94L0 94z"/>
</svg>
