<?xml version="1.0" standalone="yes"?>
<svg width="332" height="84">
<path style="fill:#000000; stroke:none;" d="M0 0L0 24L1 24C5.83525 12.6757 20.1703 8.85043 31 13C30.6595 7.32868 29.3154 4.08305 35 1L0 0z"/>
<path style="fill:#8a4a38; stroke:none;" d="M31 2L31 3L35 7L49 7L53 3C46.9962 -1.77425 37.7682 -0.466743 31 2z"/>
<path style="fill:#000000; stroke:none;" d="M49 0L49 1C54.6846 4.08305 53.3405 7.32868 53 13L66 11L64 3L84 6L84 0L49 0z"/>
<path style="fill:#ffffff; stroke:none;" d="M84 0L84 2L144 2L144 17L155 19L153 22L160 22L160 8L176 8L176 5L272 5L272 22L307 22C312.001 22 318.573 20.8951 322.981 23.7423C334.225 31.0057 323.064 36.3025 320.657 43.2091C319.221 47.3307 323.912 51.9529 318.851 54.9722C313.469 58.1835 302.142 56 296 56C299.005 67.5077 289.544 66.0735 288 75L272 75L272 82L176 82L176 61L160 61L160 56L144 56L144 84L332 84L332 0L84 0z"/>
<path style="fill:#ff8d30; stroke:none;" d="M84 2L84 6L64 3C65.8094 14.9942 78.8737 14.1543 83.0054 25C88.4422 39.2718 84 62.7412 84 78L64 78L64 84L144 84L144 56L118 56L118 22L147 22L147 27L155 19L144 17L144 2L84 2z"/>
<path style="fill:#f6ef3e; stroke:none;" d="M31 13L33 13L34 3C27.9065 4.02068 30.4315 8.30545 31 13M50 3L51 13L53 13C53.5685 8.30545 56.0934 4.02068 50 3z"/>
<path style="fill:#b0843a; stroke:none;" d="M34 4L34 8L35 8L34 4z"/>
<path style="fill:#caac3c; stroke:none;" d="M49 4L51 8L49 4z"/>
<path style="fill:#72a73e; stroke:none;" d="M176 5L176 10C188.531 7.67358 199.417 11.6195 206 23L180 31L180 32C183.453 32 188.764 31.0547 191.793 33.027C197.412 36.685 188.681 38.9129 186 39C186 41.5636 184.807 61.1318 179.028 51.8326C176.119 47.1516 178 37.3684 178 32L171 34L178 59C173.54 62.8975 176 76.285 176 82L272 82L272 75L224 75C224.629 66.7464 233.932 65.0438 241 64L241 63C233.597 58.453 208.371 37.4341 231.001 32.4769C238.716 30.7868 245.817 36.4528 253 37L253 32L266 32L263 22L272 22L272 5L176 5z"/>
<path style="fill:#000000; stroke:none;" d="M33 13L51 13C50.2298 3.31384 33.7702 3.31384 33 13z"/>
<path style="fill:#eb9898; stroke:none;" d="M160 8L158 32L173 33.4923L206 23C201.32 10.9268 187.713 7.21135 176 10L160 8z"/>
<path style="fill:#f6a725; stroke:none;" d="M16 11L16 36L28 36L29 11L16 11M56 11L56 36L68 36L68 11L56 11z"/>
<path style="fill:#8a4a38; stroke:none;" d="M0 72L16 71L16 13C-8.22841 14.2596 0 55.3844 0 72M28 13L28 72L56 72L56 13L28 13M68 13L68 71L84 72C84 54.3964 91.995 16.6098 68 13z"/>
<path style="fill:#192144; stroke:none;" d="M118 22C118 29.9996 117.959 38.0005 118.001 46C118.015 48.7086 117.564 53.1643 120.433 54.7122C123.25 56.2321 126.056 53.6093 126.643 50.956C128.034 44.6636 126 35.6127 126 29L138 29L128 56C138.682 56 159.048 59.9548 168.56 55.0617C175.332 51.5786 177.434 40.7276 171.772 35.3943C167.938 31.7839 162.893 32.0032 158 32L161 22L146 27L146 22L118 22z"/>
<path style="fill:#9a5e39; stroke:none;" d="M146 22L146 27L147 27L146 22z"/>
<path style="fill:#192144; stroke:none;" d="M263 22L266 33L253 33L255 48L250 48C250.184 53.5897 254.772 57.7729 259.142 51.7716C261.688 48.275 261 43.0729 261 39C270.435 40.5046 263.797 48.2348 268.027 53.3812C271.758 57.9196 273.944 50.6225 273.995 48.0208L274 43C279.952 46.2822 279.75 62.1401 289 50C294.345 55.1711 313.785 61.0753 320.396 54.3966C323.678 51.0805 319.536 46.8277 321.157 43.2091C323.777 37.3591 332.045 34.0566 326.397 26.1088C322.536 20.6768 314.781 22 309 22L263 22z"/>
<path style="fill:#b76b36; stroke:none;" d="M126 29L126 47L127 47L127 30L138 30L126 29z"/>
<path style="fill:#ff8d30; stroke:none;" d="M127 30L127 46C133.645 42.159 137.907 37.8838 138 30L127 30z"/>
<path style="fill:#b67a83; stroke:none;" d="M160 31L160 32L164 32L160 31z"/>
<path style="fill:#4b6c41; stroke:none;" d="M178 32L178 33L193 33L178 32z"/>
<path style="fill:#192144; stroke:none;" d="M239 53C248.886 58.1776 250.187 39.8421 245.972 34.6073C244.257 32.4764 240.394 33.3423 238 32.9691C234.96 32.4952 232.045 31.5664 229.015 32.7431C214.497 38.3816 225.827 62.9796 239 53z"/>
<path style="fill:#4b6c41; stroke:none;" d="M253 32L253 33L266 33L253 32z"/>
<path style="fill:#192144; stroke:none;" d="M178 33C178 38.1569 176.058 48.2792 179.027 52.6775C184.845 61.297 185 41.2479 185 39C186.894 38.9933 199.097 36.9 192.663 33.6026C188.934 31.6917 182.119 33 178 33M204 47L212 47C212.105 50.215 214.999 58.506 218.972 52.6775C221.036 49.6503 220.133 43.4908 219.981 40.0008C219.584 30.886 212.199 32.8062 212 41L204 41C203.904 32.9308 197.177 30.8796 197.005 40.0008C196.937 43.6006 195.972 49.3777 197.603 52.6813C200.926 59.4093 203.967 49.826 204 47z"/>
<path style="fill:#567d40; stroke:none;" d="M196 35L196 52L197 52L196 35z"/>
<path style="fill:#354b42; stroke:none;" d="M204 35L204 41L212 41L212 40L205 40L204 35z"/>
<path style="fill:#f6d435; stroke:none;" d="M15 36L15 40L30 40L30 36L15 36M54 36L54 40L69 40L69 36L54 36z"/>
<path style="fill:#6289b2; stroke:none;" d="M247 36L247 52L248 52L247 36z"/>
<path style="fill:#8ec7f5; stroke:none;" d="M248 37C248 42.8136 249.734 57.5018 240 53L239 53L231 56L241 63L241 64C233.539 64.6514 224.283 66.3701 224 75L288 75C289.419 70.4912 293.435 70.1872 296.106 66.6597C300.714 60.5717 294.037 54.1339 290 50L289 50C281.286 57.105 277.082 52.0127 277 43L275 43C274.99 46.3512 272.238 60.0909 267.179 51.8364C265.199 48.6064 266 43.6245 266 40L261 39C260.997 43.2633 261.481 48.2997 258.486 51.7708C256.589 53.9691 251.702 55.8833 250.457 51.8873C249.531 48.9174 253 40.9486 253 37L248 37z"/>
<path style="fill:#2f4065; stroke:none;" d="M253 37L252 48L255 48L255 47L253 37z"/>
<path style="fill:#eb9898; stroke:none;" d="M162 49C174.555 44.1969 156.97 34.2318 160.337 44.9599C160.761 46.3107 161.468 47.6924 162 49z"/>
<path style="fill:#3a5342; stroke:none;" d="M185 39L185 53L186 53L185 39z"/>
<path style="fill:#8ec7f5; stroke:none;" d="M232.434 40.0324C227.623 43.2726 233.016 51.1132 237.678 47.3773C242.124 43.8146 237.187 36.8305 232.434 40.0324z"/>
<path style="fill:#7fb692; stroke:none;" d="M263 39L263 40L266 40L263 39z"/>
<path style="fill:#c6662a; stroke:none;" d="M16 40L16 71L17 71L16 40z"/>
<path style="fill:#f6a725; stroke:none;" d="M17 40C19.0572 47.0907 25.6213 46.6139 28 40L17 40M56 40C58.3787 46.6139 64.9428 47.0907 67 40L56 40z"/>
<path style="fill:#c6662a; stroke:none;" d="M67 40L67 71L68 71L67 40z"/>
<path style="fill:#6289b2; stroke:none;" d="M266 40L266 52L267 52L266 40z"/>
<path style="fill:#f57b20; stroke:none;" d="M27 42C23.6496 45.741 21.2406 45.2306 17 43L17 74L29 74L27 42M56 42L56 74L67 74L67 43C62.3458 45.4481 60.138 45.2016 56 42z"/>
<path style="fill:#6993bd; stroke:none;" d="M274 43L274 52L275 52L274 43z"/>
<path style="fill:#719dc9; stroke:none;" d="M277 44L277 51L278 51L277 44z"/>
<path style="fill:#ffffff; stroke:none;" d="M127 46L123 55L123 56L128 56L127 46z"/>
<path style="fill:#eb9898; stroke:none;" d="M174 49C169.803 54.1953 166.664 55.9764 160 56L160 61L178 59L174 49z"/>
<path style="fill:#5779a2; stroke:none;" d="M249 50L249 53L250 53L249 50z"/>
<path style="fill:#ffffff; stroke:none;" d="M118 55L118 56L121 56L118 55z"/>
<path style="fill:#324469; stroke:none;" d="M229 55L229 56L236 56L229 55z"/>
<path style="fill:#1d2959; stroke:none;" d="M6 71C6.29997 80.1349 16.7 80.1349 17 71L6 71M67 71C67.3 80.1349 77.7 80.1349 78 71L67 71z"/>
<path style="fill:#000000; stroke:none;" d="M0 72L0 78L7 78L6 72L0 72M17 74L16 78L68 78L67 74L17 74M78 72L77 78L84 78L84 72L78 72z"/>
<path style="fill:#ffffff; stroke:none;" d="M0 78L0 84L64 84L64 78L0 78z"/>
</svg>
